<svg width="23" height="20" viewBox="0 0 23 20" fill="none" xmlns="http://www.w3.org/2000/svg">
<path fill-rule="evenodd" clip-rule="evenodd" d="M6.5 7H8.5V0H10.5V7C10.5 9.12 8.84 10.84 6.75 10.97V20H4.25V10.97C2.16 10.84 0.5 9.12 0.5 7V0H2.5V7H4.5V0H6.5V7ZM12.5 10C12.5 4.47715 16.9772 0 22.5 0V2C18.0817 2 14.5 5.58172 14.5 10C14.5 14.4183 18.0817 18 22.5 18V20C16.9772 20 12.5 15.5228 12.5 10ZM16.5 10C16.5 6.68629 19.1863 4 22.5 4V6C20.2909 6 18.5 7.79086 18.5 10C18.5 12.2091 20.2909 14 22.5 14V16C19.1863 16 16.5 13.3137 16.5 10Z" fill="white"/>
</svg>
