<svg width="17" height="17" viewBox="0 0 17 17" fill="none" xmlns="http://www.w3.org/2000/svg">
<path d="M16.1378 15.5519L13.3878 12.8633L13.3234 12.7653C13.2035 12.646 13.0397 12.5788 12.8686 12.5788C12.6976 12.5788 12.5337 12.646 12.4139 12.7653C10.0769 14.9093 6.47583 15.0259 3.99892 13.0376C1.522 11.0494 0.937848 7.57335 2.63386 4.91479C4.32987 2.25623 7.77977 1.24013 10.6956 2.54037C13.6114 3.8406 15.0884 7.05369 14.1469 10.0487C14.0791 10.2651 14.1345 10.5004 14.2923 10.666C14.4501 10.8316 14.6862 10.9023 14.9117 10.8515C15.1373 10.8007 15.318 10.6362 15.3858 10.4198C16.5112 6.86557 14.8115 3.0407 11.3862 1.4195C7.96091 -0.201694 3.83798 0.867316 1.68456 3.93499C-0.468871 7.00266 -0.00654373 11.1484 2.77246 13.6903C5.55146 16.2321 9.81314 16.4074 12.8006 14.1026L15.2354 16.4831C15.4869 16.7279 15.8934 16.7279 16.1449 16.4831C16.3961 16.2348 16.3961 15.8351 16.1449 15.5869L16.1378 15.5519Z" fill="white"/>
</svg>
